<svg xmlns="http://www.w3.org/2000/svg" xmlns:xlink="http://www.w3.org/1999/xlink" width="1097" zoomAndPan="magnify" viewBox="40 148 1097 393" height="393" preserveAspectRatio="xMidYMid meet" version="1.0"><defs><g/><clipPath id="c7c725d30d"><path d="M 66.960938 172.789062 L 204 172.789062 L 204 344 L 66.960938 344 Z M 66.960938 172.789062 " clip-rule="nonzero"/></clipPath><clipPath id="b09cb06645"><path d="M 220 222 L 390.210938 222 L 390.210938 358.789062 L 220 358.789062 Z M 220 222 " clip-rule="nonzero"/></clipPath><clipPath id="8ec5b49331"><path d="M 26.542969 0 L 100 0 L 100 73.636719 L 26.542969 73.636719 Z M 26.542969 0 " clip-rule="nonzero"/></clipPath><clipPath id="4a16b515d8"><path d="M 1 73.574219 L 125.347656 73.574219 L 125.347656 134.351562 L 1 134.351562 Z M 1 73.574219 " clip-rule="nonzero"/></clipPath><clipPath id="a91371e48e"><rect x="0" width="126" y="0" height="135"/></clipPath><clipPath id="d81f1cb520"><path d="M 26.261719 0 L 99.902344 0 L 99.902344 73.636719 L 26.261719 73.636719 Z M 26.261719 0 " clip-rule="nonzero"/></clipPath><clipPath id="901a368752"><path d="M 0.582031 73.574219 L 125.039062 73.574219 L 125.039062 134.351562 L 0.582031 134.351562 Z M 0.582031 73.574219 " clip-rule="nonzero"/></clipPath><clipPath id="8ec5385c98"><rect x="0" width="126" y="0" height="135"/></clipPath><clipPath id="4fea750218"><rect x="0" width="686" y="0" height="337"/></clipPath></defs><g clip-path="url(#c7c725d30d)"><path fill="#4260c0" d="M 190.308594 254.050781 C 195.28125 254.050781 199.683594 255.789062 203.386719 258.683594 L 203.386719 207.058594 L 151.609375 207.058594 C 154.496094 203.015625 156.230469 198.761719 156.226562 193.796875 C 156.226562 182.226562 146.847656 172.773438 135.28125 172.773438 C 123.710938 172.773438 114.332031 182.261719 114.332031 193.832031 C 114.332031 198.796875 116.0625 203.015625 118.949219 207.058594 L 66.96875 207.058594 L 66.96875 343.476562 L 203.386719 343.476562 L 203.386719 291.316406 C 199.683594 294.210938 195.28125 295.949219 190.308594 295.949219 C 178.738281 295.949219 169.359375 286.570312 169.359375 275 C 169.359375 263.429688 178.738281 254.050781 190.308594 254.050781 Z M 190.308594 254.050781 " fill-opacity="1" fill-rule="nonzero"/></g><g clip-path="url(#b09cb06645)"><path fill="#fc9738" d="M 338.679688 222.550781 C 341.574219 225.921875 343.3125 230.601562 343.3125 235.578125 C 343.3125 247.144531 333.933594 256.46875 322.363281 256.46875 C 310.792969 256.46875 301.414062 247.171875 301.414062 235.605469 C 301.414062 230.628906 303.152344 225.921875 306.046875 222.550781 L 253.914062 222.550781 L 253.914062 274.25 C 250.546875 271.34375 245.867188 269.601562 240.886719 269.601562 C 229.316406 269.601562 220 278.980469 220 290.550781 C 220 302.121094 229.285156 311.5 240.855469 311.5 C 245.835938 311.5 250.546875 309.757812 253.914062 306.851562 L 253.914062 358.972656 L 390.332031 358.972656 L 390.332031 222.550781 Z M 338.679688 222.550781 " fill-opacity="1" fill-rule="nonzero"/></g><g transform="matrix(1, 0, 0, 1, 265, 384)"><g clip-path="url(#a91371e48e)"><g clip-path="url(#8ec5b49331)"><path fill="#ffd699" d="M 63.226562 0 C 42.957031 0 26.542969 16.414062 26.542969 36.683594 C 26.542969 56.949219 42.957031 73.363281 63.226562 73.363281 C 83.492188 73.363281 99.90625 56.949219 99.90625 36.683594 C 99.90625 16.414062 83.492188 0 63.226562 0 Z M 63.226562 0 " fill-opacity="1" fill-rule="nonzero"/></g><g clip-path="url(#4a16b515d8)"><path fill="#ff3131" d="M 1.132812 134.351562 C 1.71875 100.578125 29.285156 73.394531 63.234375 73.394531 C 97.144531 73.394531 124.710938 100.578125 125.296875 134.351562 Z M 1.132812 134.351562 " fill-opacity="1" fill-rule="nonzero"/></g></g></g><g transform="matrix(1, 0, 0, 1, 78, 384)"><g clip-path="url(#8ec5385c98)"><g clip-path="url(#d81f1cb520)"><path fill="#ffd699" d="M 62.945312 0 C 42.679688 0 26.261719 16.414062 26.261719 36.683594 C 26.261719 56.949219 42.679688 73.363281 62.945312 73.363281 C 83.210938 73.363281 99.628906 56.949219 99.628906 36.683594 C 99.628906 16.414062 83.210938 0 62.945312 0 Z M 62.945312 0 " fill-opacity="1" fill-rule="nonzero"/></g><g clip-path="url(#901a368752)"><path fill="#39a05a" d="M 0.851562 134.351562 C 1.441406 100.578125 29.007812 73.394531 62.953125 73.394531 C 96.863281 73.394531 124.429688 100.578125 125.015625 134.351562 Z M 0.851562 134.351562 " fill-opacity="1" fill-rule="nonzero"/></g></g></g><g transform="matrix(1, 0, 0, 1, 429, 191)"><g clip-path="url(#4fea750218)"><g fill="#1A1F2D" fill-opacity="1"><g transform="translate(0.749895, 117.783084)"><g><path d="M 8.109375 -92.78125 L 46.9375 -92.78125 C 56.039062 -92.78125 63.046875 -90.34375 67.953125 -85.46875 C 72.867188 -80.601562 75.328125 -74.203125 75.328125 -66.265625 C 75.328125 -60.679688 73.953125 -55.8125 71.203125 -51.65625 C 68.453125 -47.507812 64.644531 -44.445312 59.78125 -42.46875 L 77.640625 0 L 58.828125 0 L 43.421875 -38.6875 L 25.421875 -38.6875 L 25.421875 0 L 8.109375 0 Z M 44.5 -53.96875 C 48.550781 -53.96875 51.59375 -55.023438 53.625 -57.140625 C 55.65625 -59.265625 56.671875 -62.304688 56.671875 -66.265625 C 56.671875 -69.785156 55.722656 -72.515625 53.828125 -74.453125 C 51.929688 -76.390625 49.046875 -77.359375 45.171875 -77.359375 L 25.421875 -77.359375 L 25.421875 -53.96875 Z M 44.5 -53.96875 "/></g></g></g><g fill="#1A1F2D" fill-opacity="1"><g transform="translate(80.812327, 117.783084)"><g><path d="M 8.109375 -92.78125 L 46.9375 -92.78125 C 56.039062 -92.78125 63.046875 -90.34375 67.953125 -85.46875 C 72.867188 -80.601562 75.328125 -74.203125 75.328125 -66.265625 C 75.328125 -60.679688 73.953125 -55.8125 71.203125 -51.65625 C 68.453125 -47.507812 64.644531 -44.445312 59.78125 -42.46875 L 77.640625 0 L 58.828125 0 L 43.421875 -38.6875 L 25.421875 -38.6875 L 25.421875 0 L 8.109375 0 Z M 44.5 -53.96875 C 48.550781 -53.96875 51.59375 -55.023438 53.625 -57.140625 C 55.65625 -59.265625 56.671875 -62.304688 56.671875 -66.265625 C 56.671875 -69.785156 55.722656 -72.515625 53.828125 -74.453125 C 51.929688 -76.390625 49.046875 -77.359375 45.171875 -77.359375 L 25.421875 -77.359375 L 25.421875 -53.96875 Z M 44.5 -53.96875 "/></g></g></g><g fill="#1A1F2D" fill-opacity="1"><g transform="translate(160.874758, 117.783084)"><g><path d="M 6.09375 -18.53125 L 24.75 -18.53125 L 24.75 0 L 6.09375 0 Z M 6.09375 -18.53125 "/></g></g></g><g fill="#1A1F2D" fill-opacity="1"><g transform="translate(191.709611, 117.783084)"><g><path d="M 8.109375 -92.78125 L 25.421875 -92.78125 L 25.421875 -55.1875 L 54.640625 -55.1875 L 54.640625 -92.78125 L 71.953125 -92.78125 L 71.953125 0 L 54.640625 0 L 54.640625 -39.765625 L 25.421875 -39.765625 L 25.421875 0 L 8.109375 0 Z M 8.109375 -92.78125 "/></g></g></g><g fill="#1A1F2D" fill-opacity="1"><g transform="translate(271.772042, 117.783084)"><g><path d="M 8.109375 -92.78125 L 25.421875 -92.78125 L 25.421875 -55.1875 L 54.640625 -55.1875 L 54.640625 -92.78125 L 71.953125 -92.78125 L 71.953125 0 L 54.640625 0 L 54.640625 -39.765625 L 25.421875 -39.765625 L 25.421875 0 L 8.109375 0 Z M 8.109375 -92.78125 "/></g></g></g><g fill="#1A1F2D" fill-opacity="1"><g transform="translate(351.834474, 117.783084)"><g><path d="M 6.09375 -18.53125 L 24.75 -18.53125 L 24.75 0 L 6.09375 0 Z M 6.09375 -18.53125 "/></g></g></g><g fill="#1A1F2D" fill-opacity="1"><g transform="translate(382.670378, 117.783084)"><g/></g></g><g fill="#1A1F2D" fill-opacity="1"><g transform="translate(0.749895, 306.916248)"><g><path d="M 41.515625 1.625 C 29.617188 1.625 20.488281 -2.363281 14.125 -10.34375 C 7.769531 -18.320312 4.59375 -30.335938 4.59375 -46.390625 C 4.59375 -62.441406 7.769531 -74.457031 14.125 -82.4375 C 20.488281 -90.414062 29.617188 -94.40625 41.515625 -94.40625 C 51.710938 -94.40625 59.941406 -91.382812 66.203125 -85.34375 C 72.472656 -79.300781 75.609375 -70.285156 75.609375 -58.296875 L 57.890625 -58.296875 C 57.890625 -65.234375 56.421875 -70.503906 53.484375 -74.109375 C 50.554688 -77.722656 46.566406 -79.53125 41.515625 -79.53125 C 35.203125 -79.53125 30.445312 -76.9375 27.25 -71.75 C 24.050781 -66.5625 22.453125 -59.234375 22.453125 -49.765625 L 22.453125 -43.015625 C 22.453125 -33.546875 24.097656 -26.21875 27.390625 -21.03125 C 30.679688 -15.84375 35.570312 -13.25 42.0625 -13.25 C 47.195312 -13.25 51.253906 -15.03125 54.234375 -18.59375 C 57.210938 -22.15625 58.703125 -27.410156 58.703125 -34.359375 L 75.609375 -34.359375 C 75.609375 -22.628906 72.492188 -13.695312 66.265625 -7.5625 C 60.046875 -1.4375 51.796875 1.625 41.515625 1.625 Z M 41.515625 1.625 "/></g></g></g><g fill="#1A1F2D" fill-opacity="1"><g transform="translate(80.812327, 306.916248)"><g><path d="M 43.140625 1.625 C 30.878906 1.625 21.390625 -2.363281 14.671875 -10.34375 C 7.953125 -18.320312 4.59375 -30.335938 4.59375 -46.390625 C 4.59375 -62.441406 7.953125 -74.457031 14.671875 -82.4375 C 21.390625 -90.414062 30.878906 -94.40625 43.140625 -94.40625 C 55.398438 -94.40625 64.890625 -90.414062 71.609375 -82.4375 C 78.328125 -74.457031 81.6875 -62.441406 81.6875 -46.390625 C 81.6875 -30.335938 78.328125 -18.320312 71.609375 -10.34375 C 64.890625 -2.363281 55.398438 1.625 43.140625 1.625 Z M 43.140625 -13.25 C 49.898438 -13.25 55.039062 -15.84375 58.5625 -21.03125 C 62.082031 -26.21875 63.84375 -33.546875 63.84375 -43.015625 L 63.84375 -49.765625 C 63.84375 -59.234375 62.082031 -66.5625 58.5625 -71.75 C 55.039062 -76.9375 49.898438 -79.53125 43.140625 -79.53125 C 36.378906 -79.53125 31.238281 -76.9375 27.71875 -71.75 C 24.207031 -66.5625 22.453125 -59.234375 22.453125 -49.765625 L 22.453125 -43.015625 C 22.453125 -33.546875 24.207031 -26.21875 27.71875 -21.03125 C 31.238281 -15.84375 36.378906 -13.25 43.140625 -13.25 Z M 43.140625 -13.25 "/></g></g></g><g fill="#1A1F2D" fill-opacity="1"><g transform="translate(167.095833, 306.916248)"><g><path d="M 8.109375 -92.78125 L 23.390625 -92.78125 L 52.078125 -41.65625 C 52.703125 -40.664062 53.488281 -39.15625 54.4375 -37.125 C 55.382812 -35.09375 55.992188 -33.71875 56.265625 -33 L 56.671875 -33.40625 L 56.53125 -41.109375 L 56.53125 -92.78125 L 71.953125 -92.78125 L 71.953125 0 L 56.53125 0 L 27.859375 -51.125 C 27.140625 -52.5625 26.347656 -54.179688 25.484375 -55.984375 C 24.628906 -57.796875 24.023438 -59.0625 23.671875 -59.78125 L 23.125 -59.375 C 23.125 -58.832031 23.164062 -57.796875 23.25 -56.265625 C 23.34375 -54.734375 23.390625 -53.203125 23.390625 -51.671875 L 23.390625 0 L 8.109375 0 Z M 8.109375 -92.78125 "/></g></g></g><g fill="#1A1F2D" fill-opacity="1"><g transform="translate(247.158276, 306.916248)"><g><path d="M 41.515625 1.625 C 29.617188 1.625 20.488281 -2.363281 14.125 -10.34375 C 7.769531 -18.320312 4.59375 -30.335938 4.59375 -46.390625 C 4.59375 -62.441406 7.769531 -74.457031 14.125 -82.4375 C 20.488281 -90.414062 29.617188 -94.40625 41.515625 -94.40625 C 51.710938 -94.40625 59.941406 -91.382812 66.203125 -85.34375 C 72.472656 -79.300781 75.609375 -70.285156 75.609375 -58.296875 L 57.890625 -58.296875 C 57.890625 -65.234375 56.421875 -70.503906 53.484375 -74.109375 C 50.554688 -77.722656 46.566406 -79.53125 41.515625 -79.53125 C 35.203125 -79.53125 30.445312 -76.9375 27.25 -71.75 C 24.050781 -66.5625 22.453125 -59.234375 22.453125 -49.765625 L 22.453125 -43.015625 C 22.453125 -33.546875 24.097656 -26.21875 27.390625 -21.03125 C 30.679688 -15.84375 35.570312 -13.25 42.0625 -13.25 C 47.195312 -13.25 51.253906 -15.03125 54.234375 -18.59375 C 57.210938 -22.15625 58.703125 -27.410156 58.703125 -34.359375 L 75.609375 -34.359375 C 75.609375 -22.628906 72.492188 -13.695312 66.265625 -7.5625 C 60.046875 -1.4375 51.796875 1.625 41.515625 1.625 Z M 41.515625 1.625 "/></g></g></g><g fill="#1A1F2D" fill-opacity="1"><g transform="translate(327.220707, 306.916248)"><g><path d="M 43.140625 1.625 C 30.878906 1.625 21.390625 -2.363281 14.671875 -10.34375 C 7.953125 -18.320312 4.59375 -30.335938 4.59375 -46.390625 C 4.59375 -62.441406 7.953125 -74.457031 14.671875 -82.4375 C 21.390625 -90.414062 30.878906 -94.40625 43.140625 -94.40625 C 55.398438 -94.40625 64.890625 -90.414062 71.609375 -82.4375 C 78.328125 -74.457031 81.6875 -62.441406 81.6875 -46.390625 C 81.6875 -30.335938 78.328125 -18.320312 71.609375 -10.34375 C 64.890625 -2.363281 55.398438 1.625 43.140625 1.625 Z M 43.140625 -13.25 C 49.898438 -13.25 55.039062 -15.84375 58.5625 -21.03125 C 62.082031 -26.21875 63.84375 -33.546875 63.84375 -43.015625 L 63.84375 -49.765625 C 63.84375 -59.234375 62.082031 -66.5625 58.5625 -71.75 C 55.039062 -76.9375 49.898438 -79.53125 43.140625 -79.53125 C 36.378906 -79.53125 31.238281 -76.9375 27.71875 -71.75 C 24.207031 -66.5625 22.453125 -59.234375 22.453125 -49.765625 L 22.453125 -43.015625 C 22.453125 -33.546875 24.207031 -26.21875 27.71875 -21.03125 C 31.238281 -15.84375 36.378906 -13.25 43.140625 -13.25 Z M 43.140625 -13.25 "/></g></g></g><g fill="#1A1F2D" fill-opacity="1"><g transform="translate(413.504226, 306.916248)"><g><path d="M 8.109375 -92.78125 L 46.9375 -92.78125 C 56.039062 -92.78125 63.046875 -90.34375 67.953125 -85.46875 C 72.867188 -80.601562 75.328125 -74.203125 75.328125 -66.265625 C 75.328125 -60.679688 73.953125 -55.8125 71.203125 -51.65625 C 68.453125 -47.507812 64.644531 -44.445312 59.78125 -42.46875 L 77.640625 0 L 58.828125 0 L 43.421875 -38.6875 L 25.421875 -38.6875 L 25.421875 0 L 8.109375 0 Z M 44.5 -53.96875 C 48.550781 -53.96875 51.59375 -55.023438 53.625 -57.140625 C 55.65625 -59.265625 56.671875 -62.304688 56.671875 -66.265625 C 56.671875 -69.785156 55.722656 -72.515625 53.828125 -74.453125 C 51.929688 -76.390625 49.046875 -77.359375 45.171875 -77.359375 L 25.421875 -77.359375 L 25.421875 -53.96875 Z M 44.5 -53.96875 "/></g></g></g><g fill="#1A1F2D" fill-opacity="1"><g transform="translate(493.566657, 306.916248)"><g><path d="M 8.109375 -92.78125 L 38.28125 -92.78125 C 50 -92.78125 59.125 -88.945312 65.65625 -81.28125 C 72.195312 -73.613281 75.46875 -62.4375 75.46875 -47.75 C 75.46875 -32.144531 72.222656 -20.285156 65.734375 -12.171875 C 59.242188 -4.054688 50.09375 0 38.28125 0 L 8.109375 0 Z M 36.65625 -15.421875 C 43.238281 -15.421875 48.375 -17.875 52.0625 -22.78125 C 55.757812 -27.695312 57.609375 -34.890625 57.609375 -44.359375 L 57.609375 -51.125 C 57.609375 -59.6875 55.757812 -66.195312 52.0625 -70.65625 C 48.375 -75.125 43.238281 -77.359375 36.65625 -77.359375 L 25.421875 -77.359375 L 25.421875 -15.421875 Z M 36.65625 -15.421875 "/></g></g></g><g fill="#1A1F2D" fill-opacity="1"><g transform="translate(573.629089, 306.916248)"><g><path d="M 6.765625 -92.78125 L 24.078125 -92.78125 L 24.078125 0 L 6.765625 0 Z M 6.765625 -92.78125 "/></g></g></g><g fill="#1A1F2D" fill-opacity="1"><g transform="translate(604.463893, 306.916248)"><g><path d="M 29.890625 -92.78125 L 50.046875 -92.78125 L 79.9375 0 L 62.21875 0 L 56.53125 -18.265625 L 22.3125 -18.265625 L 16.765625 0 L 0 0 Z M 51.796875 -33.671875 L 42.46875 -64.65625 C 41.832031 -66.632812 41.242188 -69.019531 40.703125 -71.8125 C 40.171875 -74.613281 39.859375 -76.421875 39.765625 -77.234375 L 39.21875 -77.234375 C 39.039062 -76.328125 38.679688 -74.453125 38.140625 -71.609375 C 37.597656 -68.773438 37.054688 -66.457031 36.515625 -64.65625 L 27.046875 -33.671875 Z M 51.796875 -33.671875 "/></g></g></g></g></g></svg>